<svg width="21" height="36" viewBox="0 0 21 36" fill="none" xmlns="http://www.w3.org/2000/svg">
<mask id="path-1-outside-1_5_89" maskUnits="userSpaceOnUse" x="0.885773" y="18" width="19" height="18" fill="black">
<rect fill="white" x="0.885773" y="18" width="19" height="18"/>
<path d="M2.40098 18.6283C2.20168 18.84 2.05636 19.4421 1.9401 20.5341C1.86121 21.3064 1.86951 23.6274 1.95671 24.1672C2.05636 24.7651 2.11034 24.9104 2.2432 24.927L2.34701 24.9395L2.3304 25.745C2.30133 26.9408 2.41759 27.8293 2.70409 28.6182C2.88678 29.1289 3.04041 29.2742 3.21064 29.1082C3.26462 29.05 3.27293 29.0666 3.29784 29.241C3.48053 30.6278 3.86252 31.6285 4.5061 32.3925C4.73447 32.6582 4.85073 32.7246 4.97944 32.6582C5.07079 32.6084 5.07079 32.5959 5.04587 32.2056L5.01681 31.8029L5.63132 32.4091C6.84374 33.609 7.77796 34.2485 8.9447 34.6844C9.70869 34.9709 9.88723 35 10.7301 35C11.4069 34.9958 11.5149 34.9875 11.8512 34.892C13.3086 34.4727 14.384 33.7959 15.7666 32.4257L16.3977 31.7987L16.3728 32.1932C16.3479 32.5461 16.3521 32.5918 16.4185 32.6416C16.5389 32.733 16.5887 32.7122 16.8088 32.4921C17.4399 31.861 17.88 30.823 18.0793 29.5151C18.1125 29.2784 18.1416 29.0749 18.1416 29.0583C18.1416 29.0376 18.1624 29.0583 18.1873 29.0957C18.2413 29.1912 18.399 29.1912 18.4862 29.0957C18.59 28.9794 18.8309 28.3151 18.9222 27.8833C19.0592 27.2522 19.1091 26.6169 19.0883 25.7408C19.0717 25.0765 19.08 24.9353 19.1257 24.9519C19.4039 25.0599 19.5824 23.7727 19.5409 21.9458C19.4869 19.6746 19.2295 18.4995 18.7893 18.4995C18.5817 18.4995 18.4115 18.7196 18.0337 19.467C17.5229 20.4759 17.3527 20.7085 16.0573 22.1243L15.2642 22.988L14.6663 22.3651C13.9854 21.6551 13.6906 21.4143 13.2214 21.1943C12.3619 20.7915 11.5232 20.8247 10.9128 21.2939L10.7176 21.4392L10.5723 21.3188C9.97857 20.8289 9.03605 20.7873 8.19732 21.2067C7.7655 21.4226 7.4707 21.6676 6.81467 22.3361C6.46589 22.6932 6.17525 22.9838 6.16694 22.9838C6.13373 22.9838 4.56008 21.2482 4.28604 20.9078C3.87498 20.4012 3.78779 20.2642 3.38503 19.467C2.89924 18.5078 2.68748 18.3251 2.40098 18.6283ZM3.06947 19.687C3.26462 20.0732 3.50129 20.505 3.59679 20.6462C3.82931 20.9825 4.32756 21.5721 4.97114 22.2655C5.26178 22.5811 5.62717 22.9838 5.78495 23.1624C5.97179 23.3658 6.10466 23.4821 6.15864 23.4821C6.21677 23.4821 6.49496 23.2246 6.98491 22.7139C7.81948 21.8461 8.1558 21.5929 8.69557 21.4226C9.11494 21.2856 9.58412 21.2731 9.92044 21.3853C10.0948 21.4434 10.2111 21.5223 10.4104 21.7257C10.7135 22.033 10.8048 22.0454 10.9543 21.8046C11.2616 21.3105 12.1169 21.1569 12.8809 21.4683C13.3833 21.6676 13.5784 21.8212 14.4089 22.6599C14.8573 23.1125 15.2476 23.4821 15.285 23.4821C15.3182 23.4821 15.476 23.3367 15.6337 23.1624C15.7915 22.9838 16.1569 22.5811 16.4476 22.2655C17.0911 21.5721 17.5894 20.9825 17.8219 20.6462C17.9174 20.505 18.1541 20.0732 18.3492 19.687C18.5444 19.3009 18.7229 18.977 18.752 18.9687C18.8807 18.9231 19.0634 20.0524 19.1423 21.323C19.1879 22.1285 19.1755 23.3741 19.1132 23.8267L19.0841 24.026L18.9554 23.8267C18.8641 23.6855 18.7935 23.6232 18.7188 23.6149C18.5236 23.59 18.4987 23.6772 18.5734 24.1755C18.7852 25.6287 18.7478 27.2107 18.4821 28.0826L18.4073 28.3193L18.2911 27.9456C18.1582 27.5179 18.125 27.4681 17.9963 27.4681C17.9465 27.4681 17.8842 27.493 17.8634 27.5179C17.8385 27.547 17.8094 27.8791 17.7928 28.257C17.743 29.5774 17.5354 30.5448 17.1243 31.3794C17.0372 31.5538 16.9209 31.7489 16.8669 31.8153L16.7673 31.9316L16.7922 31.5662C16.8171 31.2506 16.8088 31.1884 16.7465 31.1178C16.7091 31.0763 16.6427 31.0389 16.6053 31.0389C16.568 31.0389 16.3188 31.2797 16.0531 31.5745C14.7244 33.0485 13.4705 33.9454 12.0795 34.4187C11.4194 34.6429 10.5017 34.701 9.84155 34.564C9.52184 34.4976 8.72464 34.2028 8.31358 33.9952C7.44579 33.5551 6.31642 32.6333 5.36559 31.5745C5.09985 31.2797 4.85073 31.0389 4.81336 31.0389C4.77599 31.0389 4.70955 31.0763 4.67218 31.1178C4.6099 31.1884 4.6016 31.2506 4.62651 31.5662L4.65142 31.9316L4.54762 31.8112C4.40645 31.6451 4.14072 31.0846 4.00785 30.686C3.77533 29.9635 3.66322 29.2535 3.62585 28.257C3.60925 27.8791 3.58018 27.547 3.55527 27.5179C3.50544 27.4515 3.33936 27.4515 3.28538 27.5179C3.26462 27.547 3.19404 27.738 3.1276 27.9414L3.01549 28.3151L2.95737 28.149C2.85356 27.8501 2.74146 27.0653 2.71239 26.4425C2.68333 25.7948 2.73315 24.9478 2.84526 24.1755C2.92 23.6772 2.89508 23.59 2.69994 23.6149C2.6252 23.6232 2.55461 23.6855 2.46327 23.8267L2.33455 24.026L2.30549 23.8267C2.18092 22.9132 2.27642 20.3514 2.47157 19.5085C2.55046 19.1514 2.6252 18.9521 2.66672 18.9687C2.69578 18.977 2.87432 19.3009 3.06947 19.687Z"/>
</mask>
<path d="M2.40098 18.6283C2.20168 18.84 2.05636 19.4421 1.9401 20.5341C1.86121 21.3064 1.86951 23.6274 1.95671 24.1672C2.05636 24.7651 2.11034 24.9104 2.2432 24.927L2.34701 24.9395L2.3304 25.745C2.30133 26.9408 2.41759 27.8293 2.70409 28.6182C2.88678 29.1289 3.04041 29.2742 3.21064 29.1082C3.26462 29.05 3.27293 29.0666 3.29784 29.241C3.48053 30.6278 3.86252 31.6285 4.5061 32.3925C4.73447 32.6582 4.85073 32.7246 4.97944 32.6582C5.07079 32.6084 5.07079 32.5959 5.04587 32.2056L5.01681 31.8029L5.63132 32.4091C6.84374 33.609 7.77796 34.2485 8.9447 34.6844C9.70869 34.9709 9.88723 35 10.7301 35C11.4069 34.9958 11.5149 34.9875 11.8512 34.892C13.3086 34.4727 14.384 33.7959 15.7666 32.4257L16.3977 31.7987L16.3728 32.1932C16.3479 32.5461 16.3521 32.5918 16.4185 32.6416C16.5389 32.733 16.5887 32.7122 16.8088 32.4921C17.4399 31.861 17.88 30.823 18.0793 29.5151C18.1125 29.2784 18.1416 29.0749 18.1416 29.0583C18.1416 29.0376 18.1624 29.0583 18.1873 29.0957C18.2413 29.1912 18.399 29.1912 18.4862 29.0957C18.59 28.9794 18.8309 28.3151 18.9222 27.8833C19.0592 27.2522 19.1091 26.6169 19.0883 25.7408C19.0717 25.0765 19.08 24.9353 19.1257 24.9519C19.4039 25.0599 19.5824 23.7727 19.5409 21.9458C19.4869 19.6746 19.2295 18.4995 18.7893 18.4995C18.5817 18.4995 18.4115 18.7196 18.0337 19.467C17.5229 20.4759 17.3527 20.7085 16.0573 22.1243L15.2642 22.988L14.6663 22.3651C13.9854 21.6551 13.6906 21.4143 13.2214 21.1943C12.3619 20.7915 11.5232 20.8247 10.9128 21.2939L10.7176 21.4392L10.5723 21.3188C9.97857 20.8289 9.03605 20.7873 8.19732 21.2067C7.7655 21.4226 7.4707 21.6676 6.81467 22.3361C6.46589 22.6932 6.17525 22.9838 6.16694 22.9838C6.13373 22.9838 4.56008 21.2482 4.28604 20.9078C3.87498 20.4012 3.78779 20.2642 3.38503 19.467C2.89924 18.5078 2.68748 18.3251 2.40098 18.6283ZM3.06947 19.687C3.26462 20.0732 3.50129 20.505 3.59679 20.6462C3.82931 20.9825 4.32756 21.5721 4.97114 22.2655C5.26178 22.5811 5.62717 22.9838 5.78495 23.1624C5.97179 23.3658 6.10466 23.4821 6.15864 23.4821C6.21677 23.4821 6.49496 23.2246 6.98491 22.7139C7.81948 21.8461 8.1558 21.5929 8.69557 21.4226C9.11494 21.2856 9.58412 21.2731 9.92044 21.3853C10.0948 21.4434 10.2111 21.5223 10.4104 21.7257C10.7135 22.033 10.8048 22.0454 10.9543 21.8046C11.2616 21.3105 12.1169 21.1569 12.8809 21.4683C13.3833 21.6676 13.5784 21.8212 14.4089 22.6599C14.8573 23.1125 15.2476 23.4821 15.285 23.4821C15.3182 23.4821 15.476 23.3367 15.6337 23.1624C15.7915 22.9838 16.1569 22.5811 16.4476 22.2655C17.0911 21.5721 17.5894 20.9825 17.8219 20.6462C17.9174 20.505 18.1541 20.0732 18.3492 19.687C18.5444 19.3009 18.7229 18.977 18.752 18.9687C18.8807 18.9231 19.0634 20.0524 19.1423 21.323C19.1879 22.1285 19.1755 23.3741 19.1132 23.8267L19.0841 24.026L18.9554 23.8267C18.8641 23.6855 18.7935 23.6232 18.7188 23.6149C18.5236 23.59 18.4987 23.6772 18.5734 24.1755C18.7852 25.6287 18.7478 27.2107 18.4821 28.0826L18.4073 28.3193L18.2911 27.9456C18.1582 27.5179 18.125 27.4681 17.9963 27.4681C17.9465 27.4681 17.8842 27.493 17.8634 27.5179C17.8385 27.547 17.8094 27.8791 17.7928 28.257C17.743 29.5774 17.5354 30.5448 17.1243 31.3794C17.0372 31.5538 16.9209 31.7489 16.8669 31.8153L16.7673 31.9316L16.7922 31.5662C16.8171 31.2506 16.8088 31.1884 16.7465 31.1178C16.7091 31.0763 16.6427 31.0389 16.6053 31.0389C16.568 31.0389 16.3188 31.2797 16.0531 31.5745C14.7244 33.0485 13.4705 33.9454 12.0795 34.4187C11.4194 34.6429 10.5017 34.701 9.84155 34.564C9.52184 34.4976 8.72464 34.2028 8.31358 33.9952C7.44579 33.5551 6.31642 32.6333 5.36559 31.5745C5.09985 31.2797 4.85073 31.0389 4.81336 31.0389C4.77599 31.0389 4.70955 31.0763 4.67218 31.1178C4.6099 31.1884 4.6016 31.2506 4.62651 31.5662L4.65142 31.9316L4.54762 31.8112C4.40645 31.6451 4.14072 31.0846 4.00785 30.686C3.77533 29.9635 3.66322 29.2535 3.62585 28.257C3.60925 27.8791 3.58018 27.547 3.55527 27.5179C3.50544 27.4515 3.33936 27.4515 3.28538 27.5179C3.26462 27.547 3.19404 27.738 3.1276 27.9414L3.01549 28.3151L2.95737 28.149C2.85356 27.8501 2.74146 27.0653 2.71239 26.4425C2.68333 25.7948 2.73315 24.9478 2.84526 24.1755C2.92 23.6772 2.89508 23.59 2.69994 23.6149C2.6252 23.6232 2.55461 23.6855 2.46327 23.8267L2.33455 24.026L2.30549 23.8267C2.18092 22.9132 2.27642 20.3514 2.47157 19.5085C2.55046 19.1514 2.6252 18.9521 2.66672 18.9687C2.69578 18.977 2.87432 19.3009 3.06947 19.687Z" fill="white"/>
<path d="M2.40098 18.6283C2.20168 18.84 2.05636 19.4421 1.9401 20.5341C1.86121 21.3064 1.86951 23.6274 1.95671 24.1672C2.05636 24.7651 2.11034 24.9104 2.2432 24.927L2.34701 24.9395L2.3304 25.745C2.30133 26.9408 2.41759 27.8293 2.70409 28.6182C2.88678 29.1289 3.04041 29.2742 3.21064 29.1082C3.26462 29.05 3.27293 29.0666 3.29784 29.241C3.48053 30.6278 3.86252 31.6285 4.5061 32.3925C4.73447 32.6582 4.85073 32.7246 4.97944 32.6582C5.07079 32.6084 5.07079 32.5959 5.04587 32.2056L5.01681 31.8029L5.63132 32.4091C6.84374 33.609 7.77796 34.2485 8.9447 34.6844C9.70869 34.9709 9.88723 35 10.7301 35C11.4069 34.9958 11.5149 34.9875 11.8512 34.892C13.3086 34.4727 14.384 33.7959 15.7666 32.4257L16.3977 31.7987L16.3728 32.1932C16.3479 32.5461 16.3521 32.5918 16.4185 32.6416C16.5389 32.733 16.5887 32.7122 16.8088 32.4921C17.4399 31.861 17.88 30.823 18.0793 29.5151C18.1125 29.2784 18.1416 29.0749 18.1416 29.0583C18.1416 29.0376 18.1624 29.0583 18.1873 29.0957C18.2413 29.1912 18.399 29.1912 18.4862 29.0957C18.59 28.9794 18.8309 28.3151 18.9222 27.8833C19.0592 27.2522 19.1091 26.6169 19.0883 25.7408C19.0717 25.0765 19.08 24.9353 19.1257 24.9519C19.4039 25.0599 19.5824 23.7727 19.5409 21.9458C19.4869 19.6746 19.2295 18.4995 18.7893 18.4995C18.5817 18.4995 18.4115 18.7196 18.0337 19.467C17.5229 20.4759 17.3527 20.7085 16.0573 22.1243L15.2642 22.988L14.6663 22.3651C13.9854 21.6551 13.6906 21.4143 13.2214 21.1943C12.3619 20.7915 11.5232 20.8247 10.9128 21.2939L10.7176 21.4392L10.5723 21.3188C9.97857 20.8289 9.03605 20.7873 8.19732 21.2067C7.7655 21.4226 7.4707 21.6676 6.81467 22.3361C6.46589 22.6932 6.17525 22.9838 6.16694 22.9838C6.13373 22.9838 4.56008 21.2482 4.28604 20.9078C3.87498 20.4012 3.78779 20.2642 3.38503 19.467C2.89924 18.5078 2.68748 18.3251 2.40098 18.6283ZM3.06947 19.687C3.26462 20.0732 3.50129 20.505 3.59679 20.6462C3.82931 20.9825 4.32756 21.5721 4.97114 22.2655C5.26178 22.5811 5.62717 22.9838 5.78495 23.1624C5.97179 23.3658 6.10466 23.4821 6.15864 23.4821C6.21677 23.4821 6.49496 23.2246 6.98491 22.7139C7.81948 21.8461 8.1558 21.5929 8.69557 21.4226C9.11494 21.2856 9.58412 21.2731 9.92044 21.3853C10.0948 21.4434 10.2111 21.5223 10.4104 21.7257C10.7135 22.033 10.8048 22.0454 10.9543 21.8046C11.2616 21.3105 12.1169 21.1569 12.8809 21.4683C13.3833 21.6676 13.5784 21.8212 14.4089 22.6599C14.8573 23.1125 15.2476 23.4821 15.285 23.4821C15.3182 23.4821 15.476 23.3367 15.6337 23.1624C15.7915 22.9838 16.1569 22.5811 16.4476 22.2655C17.0911 21.5721 17.5894 20.9825 17.8219 20.6462C17.9174 20.505 18.1541 20.0732 18.3492 19.687C18.5444 19.3009 18.7229 18.977 18.752 18.9687C18.8807 18.9231 19.0634 20.0524 19.1423 21.323C19.1879 22.1285 19.1755 23.3741 19.1132 23.8267L19.0841 24.026L18.9554 23.8267C18.8641 23.6855 18.7935 23.6232 18.7188 23.6149C18.5236 23.59 18.4987 23.6772 18.5734 24.1755C18.7852 25.6287 18.7478 27.2107 18.4821 28.0826L18.4073 28.3193L18.2911 27.9456C18.1582 27.5179 18.125 27.4681 17.9963 27.4681C17.9465 27.4681 17.8842 27.493 17.8634 27.5179C17.8385 27.547 17.8094 27.8791 17.7928 28.257C17.743 29.5774 17.5354 30.5448 17.1243 31.3794C17.0372 31.5538 16.9209 31.7489 16.8669 31.8153L16.7673 31.9316L16.7922 31.5662C16.8171 31.2506 16.8088 31.1884 16.7465 31.1178C16.7091 31.0763 16.6427 31.0389 16.6053 31.0389C16.568 31.0389 16.3188 31.2797 16.0531 31.5745C14.7244 33.0485 13.4705 33.9454 12.0795 34.4187C11.4194 34.6429 10.5017 34.701 9.84155 34.564C9.52184 34.4976 8.72464 34.2028 8.31358 33.9952C7.44579 33.5551 6.31642 32.6333 5.36559 31.5745C5.09985 31.2797 4.85073 31.0389 4.81336 31.0389C4.77599 31.0389 4.70955 31.0763 4.67218 31.1178C4.6099 31.1884 4.6016 31.2506 4.62651 31.5662L4.65142 31.9316L4.54762 31.8112C4.40645 31.6451 4.14072 31.0846 4.00785 30.686C3.77533 29.9635 3.66322 29.2535 3.62585 28.257C3.60925 27.8791 3.58018 27.547 3.55527 27.5179C3.50544 27.4515 3.33936 27.4515 3.28538 27.5179C3.26462 27.547 3.19404 27.738 3.1276 27.9414L3.01549 28.3151L2.95737 28.149C2.85356 27.8501 2.74146 27.0653 2.71239 26.4425C2.68333 25.7948 2.73315 24.9478 2.84526 24.1755C2.92 23.6772 2.89508 23.59 2.69994 23.6149C2.6252 23.6232 2.55461 23.6855 2.46327 23.8267L2.33455 24.026L2.30549 23.8267C2.18092 22.9132 2.27642 20.3514 2.47157 19.5085C2.55046 19.1514 2.6252 18.9521 2.66672 18.9687C2.69578 18.977 2.87432 19.3009 3.06947 19.687Z" stroke="white" stroke-width="0.6" mask="url(#path-1-outside-1_5_89)"/>
<path d="M9.25302 23.5754L9.25264 23.5756C8.92006 23.7378 8.68922 23.8316 8.4349 23.8896C8.17902 23.9479 7.89228 23.9716 7.44577 23.984L7.44539 23.984C7.23795 23.9903 7.04241 24.0008 6.89474 24.0124C6.82118 24.0182 6.75782 24.0244 6.71018 24.0308C6.68668 24.0339 6.66447 24.0374 6.64578 24.0414C6.63662 24.0434 6.62552 24.0461 6.61432 24.0498L6.61379 24.05C6.60709 24.0521 6.58143 24.0606 6.5572 24.0806C6.55704 24.0807 6.55687 24.0809 6.55671 24.081L6.65273 24.1962C6.55724 24.2751 6.5946 24.4038 6.87279 24.9104L9.25302 23.5754ZM9.25302 23.5754C9.76176 23.3291 10.089 23.0767 10.3322 22.7563C10.3911 22.6783 10.4471 22.6116 10.5024 22.5623C10.5566 22.514 10.6248 22.469 10.7079 22.4604C10.7975 22.4511 10.872 22.4869 10.9295 22.534C10.9839 22.5786 11.0324 22.6407 11.0782 22.7082C11.4082 23.1875 12.1429 23.6499 12.9906 23.8853C13.2091 23.9427 13.4394 23.9675 13.994 23.984L13.9942 23.984C14.1955 23.9903 14.3858 24.0008 14.5304 24.0125C14.6025 24.0183 14.6647 24.0245 14.7119 24.0308C14.7352 24.034 14.7572 24.0374 14.7757 24.0414C14.7849 24.0433 14.7955 24.0459 14.8062 24.0493L14.8063 24.0493C14.8132 24.0515 14.8353 24.0585 14.8573 24.0742L14.8577 24.0736M9.25302 23.5754L14.8577 24.0736M14.8577 24.0736L14.8681 24.0827M14.8577 24.0736L14.8681 24.0827M14.8681 24.0827C14.913 24.1215 14.9493 24.1745 14.9608 24.246C14.9711 24.3102 14.9591 24.3753 14.9398 24.4374C14.9019 24.5597 14.815 24.7319 14.6775 24.9824L14.8681 24.0827ZM13.9096 24.6947L13.9096 24.6947C13.9604 24.6979 14.0085 24.7016 14.0518 24.7055C14.0168 24.7678 13.9743 24.8416 13.9282 24.92C13.8057 25.1284 13.6611 25.364 13.5702 25.4994L13.5699 25.4998C13.256 25.9706 12.8454 26.2702 12.3613 26.397C12.2929 26.4149 12.2451 26.4273 12.2088 26.4352C12.1869 26.4399 12.1728 26.4422 12.164 26.4433C12.1611 26.4405 12.1572 26.4367 12.1521 26.4316C12.151 26.4302 12.149 26.4277 12.1462 26.4237C12.1414 26.417 12.1354 26.4081 12.1284 26.3969C12.1142 26.3745 12.0973 26.3455 12.079 26.3117C12.0423 26.2441 12.002 26.1617 11.969 26.082L11.968 26.0796L11.968 26.0796C11.819 25.7369 11.697 25.4987 11.5011 25.3607C11.3012 25.22 11.0499 25.2005 10.7093 25.2005C10.3719 25.2005 10.1782 25.2145 10.0382 25.2817L13.9096 24.6947ZM13.9096 24.6947L13.9081 24.6946M13.9096 24.6947L13.9081 24.6946M13.9081 24.6946C12.8592 24.6185 12.0388 24.3678 11.3307 23.8842C11.217 23.8069 11.0151 23.6344 10.8765 23.5042L10.8759 23.5036L10.7289 23.364L10.5415 23.538C10.0563 23.9885 9.35261 24.3607 8.63807 24.5448C8.4504 24.5939 8.04096 24.6487 7.73195 24.6737C7.59518 24.6848 7.468 24.6959 7.36899 24.7054C7.41172 24.7844 7.46688 24.8821 7.52669 24.985C7.67041 25.2324 7.8336 25.4973 7.91094 25.6017L7.91095 25.6017M13.9081 24.6946L7.91095 25.6017M7.91095 25.6017L7.91182 25.6029M7.91095 25.6017L7.91182 25.6029M7.91182 25.6029C8.05252 25.7968 8.26634 25.9905 8.49835 26.1434C8.73183 26.2972 8.96914 26.4001 9.15296 26.4269C9.25853 26.442 9.26819 26.4313 9.27387 26.4251C9.27435 26.4245 9.27479 26.424 9.27527 26.4236C9.28779 26.4118 9.30771 26.3861 9.33779 26.3285C9.36726 26.272 9.4012 26.1955 9.44578 26.0897L7.91182 25.6029ZM7.54811 26.222C7.29063 25.9297 7.04544 25.5408 6.74119 24.9824L11.3593 26.388C11.266 26.1972 11.2007 26.0741 11.1521 25.9978C11.1297 25.9624 11.1137 25.9418 11.1032 25.9303C11.0962 25.9296 11.0863 25.9287 11.0732 25.9277C11.0432 25.9255 11.0038 25.9237 10.9575 25.9224C10.865 25.9199 10.7488 25.9199 10.6315 25.9239L10.6306 25.924L10.285 25.9338L10.0675 26.3759L10.0673 26.3762C9.95464 26.6036 9.88004 26.7485 9.81442 26.8434C9.74109 26.9494 9.6734 27.0014 9.58088 27.0436C9.2701 27.1905 8.88595 27.1123 8.42553 26.8842L8.42553 26.8842L8.42503 26.8839C8.07854 26.7107 7.80889 26.518 7.54811 26.222ZM11.095 25.9223C11.095 25.9223 11.0952 25.9225 11.0956 25.9228L11.095 25.9223Z" fill="white" stroke="white" stroke-width="0.3"/>
<path d="M14.2321 10.3088C13.2755 10.4246 11.1136 10.4675 10.17 10.3946C8.47565 10.2573 6.93574 9.93989 5.56741 9.4466L14.2321 10.3088ZM14.2321 10.3088C14.9312 10.223 15.9564 10.0557 16.3553 9.96133L14.2321 10.3088ZM18.8089 4.11484C18.736 4.0891 18.7403 4.07624 18.8389 3.94326L16.8701 2.3047L16.9267 2.16579C17.457 2.38183 17.9861 2.66645 18.3846 2.93341C18.5834 3.06661 18.7539 3.19816 18.8765 3.31727C18.9376 3.37665 18.9904 3.43641 19.029 3.49485C19.0655 3.5501 19.1004 3.6209 19.1004 3.69877C19.1004 3.76118 19.0753 3.82703 19.0533 3.87443C19.0316 3.92128 19.0034 3.97018 18.9724 4.01448M18.8089 4.11484L18.858 3.97531C18.8577 3.97511 18.8574 3.97491 18.8571 3.97471C18.8552 3.97339 18.8536 3.97238 18.8523 3.97166C18.8497 3.9701 18.8481 3.96935 18.848 3.96931C18.8479 3.96927 18.8486 3.96961 18.8506 3.97038L18.8587 3.97336C18.8587 3.97337 18.8588 3.97338 18.8588 3.97339C18.8721 3.97806 18.8853 3.98278 18.8986 3.98753C18.8988 3.98762 18.8991 3.98772 18.8994 3.98782C18.9238 3.99658 18.9481 4.00547 18.9724 4.01448M18.8089 4.11484L18.8581 3.97538C18.8601 3.97677 18.8623 3.97846 18.8648 3.98049C18.876 3.98981 18.8918 4.00689 18.9014 4.03322C18.9109 4.05949 18.9097 4.08259 18.907 4.0967C18.9058 4.10344 18.9042 4.10839 18.9032 4.11116L18.9019 4.11436L18.9014 4.1154C18.9014 4.11542 18.9015 4.11518 18.9018 4.11465L18.9031 4.11238L18.9083 4.10402C18.9184 4.08842 18.9342 4.06652 18.9594 4.03264L18.9597 4.03224C18.964 4.02642 18.9682 4.02049 18.9724 4.01448M18.8089 4.11484C19.7225 4.43655 20.5375 4.93841 20.5375 5.17433C20.5375 5.21722 20.4775 5.30301 20.4003 5.36306C19.7568 5.89495 19.1177 6.64989 18.9504 7.08313L18.4186 15.8776C18.4959 15.9749 18.6149 15.9966 18.7086 15.9831C18.8051 15.9692 18.9045 15.9157 18.9672 15.8235L18.9698 15.8198L18.9697 15.8197C19.0373 15.7136 19.1957 15.3773 19.3594 15.0074C19.5256 14.6321 19.705 14.2044 19.8159 13.9041C20.3005 12.6104 20.5243 11.5633 20.5331 10.4987L20.5331 10.4984C20.5375 9.72582 20.4886 9.39557 20.2849 8.7977L20.2846 8.79688C20.0608 8.15227 19.6357 7.57312 19.1075 7.19786C19.1 7.19221 19.0933 7.18716 19.0872 7.18255C19.0832 7.17943 19.0794 7.17651 19.0759 7.17375C19.0795 7.16418 19.0839 7.15305 19.0894 7.13958L19.0904 7.13717L19.0904 7.13716C19.1647 6.94466 19.3529 6.6632 19.6114 6.35684C19.8667 6.05436 20.1804 5.73961 20.4942 5.47999C20.5436 5.44132 20.5871 5.39504 20.6196 5.34981C20.6362 5.32685 20.6516 5.3017 20.6634 5.27563C20.6742 5.25213 20.6875 5.21599 20.6875 5.17433C20.6875 5.10353 20.658 5.04085 20.6264 4.99236C20.5935 4.94195 20.549 4.89258 20.4987 4.84521C20.3977 4.75026 20.2578 4.64928 20.0943 4.54892C19.7931 4.36401 19.3958 4.17162 18.9724 4.01448M11.9844 1.06505C11.2552 1.06934 10.4745 1.18945 10.0113 1.36532C9.9555 1.38676 9.94263 1.36532 9.94263 1.26237C9.94263 0.992135 9.77534 0.95353 8.99896 1.04361C6.49393 1.331 4.71811 2.77225 3.92456 5.15717M11.9844 1.06505L2.63773 15.8207C2.52621 15.795 2.34176 15.4389 1.99003 14.5596C1.11498 12.3806 0.797566 10.3731 1.12785 9.082M11.9844 1.06505L11.9835 0.915058C11.9835 0.915058 11.9835 0.915057 11.9835 0.915057M11.9844 1.06505L11.9835 0.915057M3.92456 5.15717C3.77014 5.61614 3.6243 6.28529 3.56854 6.77429C3.5428 7.0145 3.52993 7.04452 3.44843 7.04452C3.26828 7.04452 2.71065 7.22468 2.41468 7.3791C1.80987 7.69652 1.3123 8.3528 1.12785 9.082M3.92456 5.15717L3.78223 5.10981C3.78226 5.10975 3.78228 5.10968 3.7823 5.10961C3.78233 5.10952 3.78236 5.10943 3.78239 5.10934L3.92456 5.15717ZM1.12785 9.082L0.982532 9.04483C0.640285 10.3827 0.971975 12.4269 1.85079 14.6154C2.02686 15.0556 2.16309 15.37 2.27058 15.5789C2.32409 15.6829 2.37322 15.7661 2.41942 15.8271C2.45934 15.8797 2.51918 15.9466 2.60233 15.9665M1.12785 9.082L0.982432 9.04522C1.17623 8.27906 1.69863 7.58549 2.34497 7.24628L2.3453 7.24611C2.50347 7.16359 2.72549 7.07695 2.92883 7.01118C3.03112 6.9781 3.13104 6.94952 3.21825 6.92905C3.28284 6.91389 3.34683 6.9016 3.40181 6.89676L2.60233 15.9665M2.60233 15.9665C2.65217 15.9789 2.73397 15.9953 2.81399 15.9588C2.90118 15.9191 2.94222 15.8387 2.96528 15.7681C2.98887 15.696 3.00447 15.6005 3.01781 15.4822C3.0314 15.3617 3.04365 15.2072 3.05758 15.0121L3.05764 15.0114C3.13846 13.799 3.34223 12.7995 3.66445 12.0128L3.66458 12.0125C3.80803 11.66 3.98812 11.3641 4.28891 11.0006L4.17335 10.905M2.60233 15.9665L18.5344 15.7821C18.5086 15.7564 18.4657 15.499 18.44 15.2159L18.2908 15.2314C18.2908 15.2311 18.2907 15.2308 18.2907 15.2305C18.0816 13.2261 17.4769 11.2926 16.766 10.3156C16.7063 10.2343 16.6648 10.1788 16.6306 10.1394C16.5961 10.0997 16.5785 10.0878 16.5703 10.0837C16.5593 10.0782 16.5442 10.0717 16.3895 10.1074C15.9824 10.2037 14.9513 10.3717 14.2503 10.4577L14.2501 10.4577C13.2835 10.5747 11.1117 10.6178 10.1584 10.5441L10.1579 10.5441C8.45244 10.4059 6.89923 10.0862 5.51654 9.58771L5.51649 9.58769C5.45209 9.56445 5.39482 9.54348 5.34355 9.52471C5.2475 9.48955 5.17252 9.4621 5.11123 9.44184C5.06782 9.42749 5.03614 9.41843 5.01253 9.41331C5.00687 9.43389 5.00156 9.45874 4.99442 9.4922C4.98852 9.51987 4.98135 9.55342 4.97169 9.59534C4.92316 9.81663 4.82051 10.0853 4.69861 10.3363C4.57664 10.5873 4.42998 10.8318 4.28845 11.0012L4.17335 10.905M4.17335 10.905C3.86451 11.2782 3.67577 11.587 3.52564 11.9559L4.17335 10.905ZM11.9835 0.915057C12.1538 0.913987 12.2896 0.914468 12.3964 0.919944C12.5007 0.925289 12.5907 0.935813 12.6628 0.960975C12.7425 0.988808 12.8089 1.03789 12.8464 1.11946C12.8733 1.17806 12.8793 1.24245 12.8805 1.29816C13.0826 1.27074 13.5757 1.2535 14.0672 1.2475C14.5923 1.24108 15.1446 1.24724 15.3841 1.27186L15.3847 1.27193C15.7911 1.31539 16.1475 1.3799 16.4134 1.45532C16.5459 1.49288 16.6609 1.53453 16.7498 1.58017C16.7943 1.60301 16.8361 1.62874 16.8711 1.65813C16.9052 1.68666 16.9412 1.72546 16.9619 1.77651L16.9621 1.77643L16.9646 1.7838C17.0136 1.92537 16.9594 2.05361 16.8645 2.14022L11.9835 0.915057ZM13.2134 1.96103L13.2135 1.96102C13.5891 1.93359 14.1387 1.92497 14.6292 1.93245C14.8742 1.93618 15.1027 1.94389 15.2859 1.9551C15.3406 1.95845 15.39 1.96205 15.4338 1.9658C15.4191 2.00643 15.4118 2.04999 15.4118 2.09452C15.4118 2.13298 15.4149 2.18492 15.4399 2.23759C15.466 2.29263 15.5075 2.33133 15.5533 2.36118C15.6342 2.4139 15.7668 2.46187 15.9587 2.52792C16.9318 2.86788 17.8016 3.3196 18.3105 3.73746C18.3105 3.73747 18.3105 3.73748 18.3105 3.73748L18.3177 3.74341L18.2588 3.81922C18.2585 3.81954 18.2583 3.81986 18.258 3.82018C18.1732 3.92572 18.1094 4.03296 18.0854 4.13524C18.0599 4.24386 18.0778 4.36779 18.1857 4.44833C18.201 4.46021 18.2168 4.46859 18.2248 4.47271C18.2366 4.47885 18.2499 4.4851 18.2637 4.49121C18.2914 4.50352 18.3263 4.51768 18.3654 4.53266C18.4438 4.56266 18.5438 4.59781 18.6467 4.63069M13.2134 1.96103L18.6931 4.48802M13.2134 1.96103C13.0063 1.97597 12.8453 1.98724 12.722 1.99097C12.6025 1.99459 12.5018 1.99204 12.4236 1.97153C12.3821 1.96065 12.3398 1.94305 12.3025 1.91299C12.2639 1.88177 12.2382 1.84326 12.2221 1.80228C12.1947 1.73246 12.1947 1.64974 12.1947 1.5866V1.58408V1.57039L11.8508 1.58802C11.8508 1.58803 11.8507 1.58803 11.8506 1.58804C11.2179 1.62179 10.6605 1.71861 10.1729 1.87275C10.0501 1.91258 9.94687 1.94316 9.86193 1.96067C9.78075 1.97741 9.69567 1.987 9.61939 1.96643C9.52716 1.94155 9.46702 1.87863 9.43659 1.79789C9.41099 1.72995 9.40658 1.65016 9.40658 1.5755C9.40658 1.5632 9.40658 1.55207 9.40655 1.54187C8.69904 1.57852 7.77709 1.8041 7.14014 2.09774C6.17297 2.54611 5.35551 3.33663 4.80333 4.37405L4.80323 4.37425C4.44468 5.0455 4.14593 6.11395 4.10002 6.87341L3.9503 6.86437M13.2134 1.96103L2.3948 14.5142L2.42723 14.5966L2.42733 14.5969L2.50047 14.7827L2.5305 14.6154C2.53504 14.5904 2.54139 14.5491 2.54899 14.4964L2.48134 14.3245L2.48115 14.324C2.46618 14.2864 2.45135 14.2487 2.43668 14.211M18.6467 4.63069C18.647 4.63077 18.6472 4.63084 18.6475 4.63092L18.6931 4.48802M18.6467 4.63069C18.6465 4.63062 18.6463 4.63055 18.6461 4.63047L18.6931 4.48802M18.6467 4.63069C18.8405 4.69465 19.1045 4.80446 19.3408 4.91547C19.4587 4.97085 19.568 5.02572 19.6566 5.07436C19.7194 5.10878 19.7676 5.13779 19.8005 5.16002M18.6931 4.48802C19.0868 4.61787 19.7423 4.92361 19.9207 5.06172L19.8005 5.16002M19.8005 5.16002C19.8151 5.16987 19.8267 5.17839 19.8353 5.18546M19.8005 5.16002L19.7519 5.19979L19.7507 5.20083C19.3189 5.56212 18.8644 6.09032 18.6136 6.54668C18.5297 6.69434 18.4513 6.87039 18.3968 7.02379C18.3695 7.10065 18.3471 7.17479 18.3332 7.23887C18.3262 7.27086 18.3208 7.30275 18.3184 7.33265C18.3162 7.35991 18.3155 7.39548 18.3241 7.43095M19.9327 5.07138L20.0357 5.16146L19.9179 5.25778L19.8353 5.18546M19.9327 5.07138L19.8469 5.31588C19.4266 5.66761 18.9848 6.18235 18.7445 6.61987C18.5858 6.89868 18.4443 7.29331 18.47 7.39625M19.9327 5.07138L19.8364 5.18636C19.836 5.18606 19.8357 5.18576 19.8353 5.18546M19.9327 5.07138L19.8339 5.18427L19.8353 5.18546M18.3241 7.43095C18.3239 7.43023 18.3238 7.42951 18.3236 7.4288L18.47 7.39625M18.3241 7.43095C18.3356 7.47976 18.3667 7.51652 18.3809 7.53275C18.4008 7.55533 18.4249 7.57774 18.4498 7.59865C18.5001 7.64077 18.5644 7.68545 18.6315 7.72381L18.6317 7.72391C18.939 7.89898 19.3061 8.31084 19.5015 8.71797L19.5019 8.71876C19.8129 9.35712 19.9105 10.2162 19.787 11.2328C19.6723 12.1774 19.3679 13.2484 18.8785 14.3852M18.3241 7.43095C18.3242 7.43151 18.3244 7.43207 18.3245 7.43263L18.47 7.39625M18.47 7.39625L18.8785 14.3852M2.43668 14.211C2.05503 13.2309 1.77439 12.2464 1.63181 11.395L1.63181 11.3949C1.57117 11.0332 1.54059 10.6202 1.54112 10.2387C1.54165 9.85493 1.57369 9.51403 1.63306 9.29239L1.63315 9.29204C1.76736 8.78617 1.97431 8.41418 2.26752 8.1441C2.56083 7.87392 2.95258 7.69454 3.47593 7.59519C3.58589 7.57497 3.69207 7.54906 3.77563 7.52371C3.8172 7.51109 3.85555 7.4979 3.88693 7.48477C3.90249 7.47827 3.91874 7.47078 3.93379 7.46231C3.94534 7.4558 3.97029 7.44114 3.99127 7.41666L3.99763 7.40924L3.99738 7.40905C4.01387 7.38706 4.02321 7.36371 4.02798 7.35086C4.03379 7.33523 4.03874 7.31842 4.04302 7.30193C4.05161 7.26879 4.05957 7.22867 4.0667 7.18506C4.08102 7.09742 4.09333 6.98717 4.10004 6.87317L3.9503 6.86437M2.43668 14.211C2.45068 14.1055 2.46576 13.9893 2.48038 13.8756L2.48039 13.8755C2.65352 12.5338 3.06235 11.38 3.62216 10.7299L3.62235 10.7297C4.04154 10.2448 4.26484 9.75668 4.35079 9.1427C4.36783 9.02026 4.38456 8.91592 4.40788 8.83494C4.43007 8.75788 4.46683 8.66892 4.54782 8.61472C4.63453 8.55669 4.73127 8.56429 4.80816 8.58272C4.88521 8.60119 4.97525 8.63871 5.07496 8.68326C5.82903 9.01599 7.38199 9.45903 8.42378 9.63762L8.42387 9.63764C9.60991 9.84169 10.0728 9.87568 11.7013 9.87568C13.5469 9.87568 14.544 9.78614 15.938 9.48864L15.9385 9.48854C15.9915 9.4774 16.0412 9.46689 16.0879 9.45704C16.2284 9.42734 16.3408 9.40358 16.4308 9.3865C16.5482 9.36421 16.6414 9.35031 16.7171 9.35242C16.8029 9.35482 16.8721 9.37775 16.9346 9.42768C16.9739 9.45912 17.0114 9.50375 17.0441 9.54252C17.0514 9.55123 17.0585 9.55965 17.0653 9.56756C17.4837 10.0528 17.9118 10.8336 18.2117 11.6463C18.4392 12.2546 18.7286 13.4313 18.8541 14.2274L18.8542 14.2278L18.8785 14.3852M2.43668 14.211L18.8785 14.3852M3.9503 6.86437C3.93743 7.08313 3.90311 7.28473 3.87738 7.31905L4.67092 4.30358C4.30203 4.99417 3.99748 6.08369 3.9503 6.86437ZM16.6611 2.21624C16.6587 2.21516 16.6564 2.21409 16.6541 2.21304C16.6531 2.2126 16.6522 2.21216 16.6512 2.21172C16.4931 2.13904 16.5108 2.12134 16.6299 2.09881C16.6462 2.09535 16.6618 2.09063 16.6766 2.08483L16.6611 2.21624ZM18.7059 7.59357C19.0448 7.78659 19.4309 8.22411 19.6367 8.65306L18.7059 7.59357Z" fill="white" stroke="white" stroke-width="0.3"/>
</svg>
