<svg width="20" height="21" viewBox="0 0 20 21" fill="none" xmlns="http://www.w3.org/2000/svg">
<path d="M18.7344 16.1139L15.567 12.9466L13.1308 11.94C13.942 10.7865 14.3766 9.41024 14.375 8C14.375 4.2091 11.2909 1.125 7.5 1.125C3.7091 1.125 0.625 4.2091 0.625 8C0.625 11.7909 3.7091 14.875 7.5 14.875C8.92251 14.8766 10.3101 14.4345 11.4695 13.6103L12.4734 16.04L15.6406 19.2075C15.8437 19.4106 16.0849 19.5717 16.3503 19.6817C16.6157 19.7916 16.9002 19.8482 17.1874 19.8482C17.4747 19.8482 17.7592 19.7917 18.0246 19.6817C18.29 19.5718 18.5311 19.4107 18.7343 19.2076C18.9374 19.0044 19.0986 18.7633 19.2085 18.4979C19.3184 18.2325 19.375 17.948 19.375 17.6608C19.375 17.3735 19.3185 17.089 19.2085 16.8236C19.0986 16.5582 18.9375 16.317 18.7344 16.1139ZM1.875 8C1.875 4.89844 4.39844 2.375 7.5 2.375C10.6016 2.375 13.125 4.89844 13.125 8C13.125 11.1016 10.6016 13.625 7.5 13.625C4.39844 13.625 1.875 11.1016 1.875 8ZM17.8504 18.3236C17.6745 18.4991 17.4361 18.5977 17.1875 18.5977C16.9389 18.5977 16.7005 18.4991 16.5246 18.3236L13.5335 15.3325L12.6001 13.0733L14.8594 14.0067L17.8505 16.9978C18.026 17.1737 18.1246 17.4121 18.1246 17.6607C18.1246 17.9092 18.026 18.1476 17.8504 18.3236Z" fill="#5C5C5C"/>
</svg>
