<svg width="31" height="24" viewBox="0 0 31 24" fill="none" xmlns="http://www.w3.org/2000/svg">
<path d="M5.30082 7.20404C6.4678 3.6968 9.07931 1.57732 12.7632 1.15468C13.9049 1.02221 14.1509 1.07899 14.1509 1.47639C14.1509 1.62778 14.1699 1.65932 14.2519 1.62778C14.9331 1.36915 16.0812 1.19253 17.1535 1.18622L14.4853 14.9061C11.9936 14.7042 9.72903 14.2374 7.71678 13.512C7.09211 13.2866 6.8703 13.1867 6.76705 13.2582C6.6941 13.3087 6.68035 13.4447 6.6255 13.6823C6.49303 14.2879 6.05147 15.1963 5.66669 15.6567M5.30082 7.20404C5.07374 7.87899 4.85927 8.86304 4.77726 9.58215C4.73941 9.9354 4.72049 9.97955 4.60064 9.97955C4.3357 9.97955 3.51566 10.2445 3.08041 10.4716C2.19099 10.9384 1.45926 11.9035 1.18802 12.9758M5.30082 7.20404L5.15866 7.15621C5.15863 7.15629 5.1586 7.15636 5.15858 7.15644M5.30082 7.20404L5.1585 7.15668C5.15852 7.1566 5.15855 7.15652 5.15858 7.15644M1.18802 12.9758C0.702303 14.8745 1.16909 17.8267 2.45592 21.0311C2.97318 22.3243 3.24442 22.8478 3.40843 22.8857M1.18802 12.9758L1.0427 12.9387C1.04266 12.9388 1.04263 12.9389 1.0426 12.9391M1.18802 12.9758L1.0426 12.9391M3.40843 22.8857C3.68598 22.9551 3.72383 22.8289 3.80583 21.6809C3.92568 19.8831 4.22847 18.3881 4.71418 17.2022C4.93496 16.6597 5.21251 16.2055 5.66669 15.6567M3.40843 22.8857L3.37205 23.0312C3.3724 23.0313 3.37275 23.0314 3.3731 23.0315M3.40843 22.8857L3.3747 23.0318C3.37417 23.0317 3.37363 23.0316 3.3731 23.0315M5.66669 15.6567L5.78179 15.7529C5.78187 15.7528 5.78196 15.7527 5.78204 15.7526M5.66669 15.6567L5.78225 15.7524C5.78218 15.7525 5.78211 15.7525 5.78204 15.7526M24.1896 2.78488C24.3668 2.67931 24.4851 2.48116 24.4107 2.26628L24.4081 2.25892L24.4079 2.25899C24.3835 2.1986 24.3398 2.15042 24.2946 2.11251C24.2483 2.07373 24.1918 2.03864 24.1292 2.00655C24.0042 1.94239 23.84 1.88264 23.6475 1.82804C23.2615 1.71856 22.7416 1.62428 22.1465 1.56063L22.1459 1.56057C21.7984 1.52485 20.9902 1.51566 20.2174 1.5251C19.448 1.5345 18.6848 1.56261 18.4337 1.60614L18.4316 1.60649C18.4206 1.60857 18.4105 1.61044 18.4013 1.6121C18.4012 1.59984 18.4011 1.58624 18.4011 1.57101C18.4011 1.48086 18.3965 1.38171 18.357 1.29569C18.3116 1.19703 18.2314 1.13596 18.1279 1.0998C18.032 1.06631 17.908 1.05112 17.7558 1.04332L24.1896 2.78488ZM24.1896 2.78488C24.2471 2.80946 24.3152 2.83769 24.3949 2.87032C25.1705 3.18628 25.9444 3.60261 26.5263 3.99244C26.8169 4.18708 27.0637 4.37786 27.2398 4.54892C27.3276 4.63428 27.4014 4.71819 27.4543 4.79833C27.5051 4.87527 27.5477 4.96531 27.5477 5.05932C27.5477 5.13486 27.5165 5.21988 27.4849 5.28798C27.4507 5.36188 27.4045 5.43993 27.3544 5.50786L27.3542 5.50826C27.3404 5.52679 27.3283 5.54315 27.3178 5.55768C27.9693 5.79297 28.5836 6.08777 29.0429 6.36971C29.2812 6.51599 29.4825 6.66163 29.6261 6.7967C29.6979 6.86413 29.759 6.93243 29.8032 7.00021C29.8461 7.06608 29.8816 7.14459 29.8816 7.22927C29.8816 7.27598 29.8665 7.31843 29.8526 7.34899C29.8375 7.38212 29.8174 7.4151 29.7951 7.44613C29.751 7.50753 29.6912 7.57099 29.6237 7.6238C29.1585 8.00856 28.694 8.47469 28.3158 8.92273C27.9344 9.37467 27.6513 9.79592 27.5376 10.0904L27.5376 10.0904L27.5367 10.0928C27.5163 10.143 27.5053 10.1722 27.4998 10.1925C27.4999 10.1926 27.5001 10.1927 27.5002 10.1929C27.5166 10.2085 27.5422 10.2284 27.587 10.2621C28.3514 10.8049 28.9683 11.6444 29.293 12.5797L29.2933 12.5805C29.5899 13.4509 29.6609 13.9285 29.6546 15.0583L29.6546 15.0587C29.6418 16.6137 29.315 18.1453 28.6044 20.0426C28.4419 20.4821 28.1787 21.1097 27.9346 21.6612C27.6929 22.2072 27.4623 22.6958 27.3665 22.8464L27.3666 22.8464L27.364 22.8502C27.2842 22.9676 27.1565 23.0367 27.0319 23.0547C26.9105 23.0722 26.7639 23.0431 26.6703 22.9248L24.1896 2.78488ZM5.15858 7.15644C6.34405 3.59386 9.00446 1.43492 12.7461 1.00566C13.0325 0.972429 13.2665 0.950611 13.4559 0.943291C13.6436 0.936035 13.7973 0.942497 13.9191 0.970703C14.0434 0.999519 14.1489 1.05456 14.218 1.15451C14.2793 1.24314 14.2981 1.34751 14.3006 1.45056C15.0116 1.20412 16.1204 1.0423 17.1526 1.03622L23.6159 14.415C23.6158 14.415 23.6157 14.415 23.6155 14.415M5.15858 7.15644C4.92796 7.84196 4.71135 8.83624 4.62823 9.56515L4.62811 9.56617C4.61867 9.65436 4.61077 9.71952 4.60259 9.76861C4.59796 9.79643 4.59368 9.81602 4.59006 9.82966M4.59006 9.82966C4.59364 9.82959 4.59716 9.82955 4.60064 9.82955C4.61301 9.82955 4.61777 9.82876 4.61778 9.82879C4.61778 9.82882 4.61291 9.82969 4.60612 9.83311C4.60416 9.83409 4.60233 9.83512 4.60064 9.83617C4.58748 9.84434 4.58213 9.85382 4.58203 9.85376C4.58201 9.85375 4.58219 9.85338 4.58255 9.85258C4.5845 9.84817 4.58706 9.84096 4.59006 9.82966ZM4.59006 9.82966C4.50654 9.83122 4.3958 9.85088 4.27826 9.87846C4.15235 9.90802 4.00733 9.94946 3.85823 9.99768C3.56129 10.0937 3.23884 10.2197 3.01103 10.3386L3.01071 10.3388C2.07974 10.8273 1.32319 11.8297 1.0426 12.9391M1.0426 12.9391C0.545088 14.8845 1.02617 17.8733 2.31668 21.0869C2.57551 21.734 2.77483 22.1938 2.93127 22.4978C3.00925 22.6493 3.07932 22.7676 3.14362 22.8524C3.2016 22.9289 3.27673 23.0085 3.3731 23.0315M3.3731 23.0315C3.44497 23.0494 3.54422 23.0676 3.63834 23.0246C3.73956 22.9784 3.79126 22.8836 3.82303 22.7864C3.85532 22.6877 3.87767 22.5534 3.89723 22.38C3.91703 22.2044 3.93495 21.9785 3.95545 21.6915L3.9555 21.6908C4.07468 19.9031 4.37533 18.4253 4.85299 17.259L4.85312 17.2587C5.06719 16.7327 5.33604 16.2916 5.78204 15.7526M5.78204 15.7526C5.98506 15.5096 6.19773 15.1557 6.37564 14.7895C6.55355 14.4232 6.70213 14.0334 6.77185 13.7152C6.78491 13.6586 6.79506 13.6112 6.80372 13.5707C6.81912 13.4987 6.8298 13.4488 6.84374 13.4085C6.84748 13.3977 6.85065 13.3903 6.85301 13.3854M6.85301 13.3854C6.84852 13.3854 6.84557 13.3856 6.84386 13.3859C6.84382 13.3859 6.84389 13.3859 6.84404 13.3858C6.84525 13.3854 6.85209 13.3829 6.85727 13.3774C6.85752 13.3771 6.85764 13.377 6.85765 13.377C6.85767 13.377 6.85597 13.3792 6.85301 13.3854ZM6.85301 13.3854C6.86286 13.3854 6.88012 13.3868 6.90798 13.3924C6.94742 13.4005 6.99902 13.4152 7.06808 13.438C7.15926 13.4681 7.27121 13.5091 7.41338 13.5612C7.48861 13.5887 7.5723 13.6193 7.66586 13.6531L7.66591 13.6531C9.69252 14.3837 11.9704 14.8528 14.4731 15.0556L14.4737 15.0556C15.8711 15.1636 19.0602 15.1004 20.4769 14.9288L20.4772 14.9288C21.5072 14.8024 23.0207 14.5557 23.6155 14.415M23.6155 14.415C23.8359 14.3642 23.8858 14.3642 23.929 14.3858C23.9534 14.398 23.9866 14.4237 24.0394 14.4845C24.0921 14.5451 24.1549 14.6291 24.2423 14.7483M23.6155 14.415L24.2423 14.7483M24.2423 14.7483C25.2983 16.1996 26.1897 19.0577 26.4978 22.0109C26.4978 22.0112 26.4978 22.0115 26.4979 22.0118L24.2423 14.7483ZM18.9558 2.43342L18.9559 2.43341C19.5112 2.39286 20.3216 2.38021 21.0441 2.39121C21.4049 2.39671 21.7421 2.40809 22.013 2.42466C22.1381 2.43231 22.246 2.44093 22.3343 2.45012C22.2879 2.52281 22.2644 2.60909 22.2644 2.70014C22.2644 2.75324 22.2689 2.81703 22.2989 2.88027C22.33 2.94588 22.3802 2.99385 22.4405 3.03316C22.5504 3.10482 22.7355 3.17248 23.0214 3.27085M18.9558 2.43342L23.0704 3.12908M18.9558 2.43342C18.6508 2.45543 18.4156 2.47187 18.2361 2.47731C18.0604 2.48263 17.9215 2.47831 17.8173 2.45098C17.7628 2.4367 17.7106 2.41443 17.6657 2.37825C17.6194 2.3409 17.5885 2.2948 17.5688 2.24459C17.5338 2.15535 17.5334 2.04624 17.5334 1.94949V1.85506L16.9534 1.8848C16.0178 1.9347 15.1918 2.07795 14.468 2.3068M18.9558 2.43342L10.0003 2.64068C10.954 2.20102 12.3353 1.86502 13.3884 1.81546L13.3907 1.81535C13.4065 1.81435 13.4201 1.81355 13.432 1.81298C13.4331 1.84275 13.4332 1.88206 13.4332 1.93687C13.4332 2.04585 13.44 2.15201 13.4728 2.23903C13.5104 2.33885 13.5825 2.41356 13.694 2.44361C13.7894 2.46936 13.9009 2.45832 14.018 2.43417C14.1389 2.40925 14.2877 2.36529 14.468 2.3068M23.0214 3.27085C23.0215 3.27087 23.0215 3.2709 23.0216 3.27092L23.0704 3.12908M23.0214 3.27085C23.0213 3.27079 23.0211 3.27074 23.0209 3.27069L23.0704 3.12908M23.0214 3.27085C24.4566 3.77229 25.7442 4.43997 26.5014 5.06169L26.5966 4.94578M23.0704 3.12908C24.5149 3.63372 25.8207 4.30867 26.5966 4.94578M26.5966 4.94578L26.5014 5.0617M26.5966 4.94578L26.5014 5.0617M26.5014 5.0617L26.5651 5.11407L26.4355 5.28071C26.4353 5.28103 26.435 5.28134 26.4348 5.28166C26.3127 5.43361 26.2261 5.58172 26.1943 5.71733C26.161 5.8593 26.1859 6.00918 26.3164 6.10588C26.3333 6.11901 26.3517 6.12895 26.3631 6.13486C26.3787 6.14297 26.3968 6.1515 26.4164 6.16017C26.4556 6.17758 26.5057 6.19793 26.5626 6.21972C26.6765 6.26333 26.8224 6.31462 26.9728 6.36264C27.2615 6.45788 27.6527 6.62069 28.0018 6.7847C28.176 6.86657 28.3381 6.94794 28.4702 7.02036C28.6042 7.09386 28.6983 7.15332 28.7448 7.19192L28.7614 7.2065M26.5014 5.0617L28.7614 7.2065M28.7614 7.2065L28.6211 7.32134L28.6198 7.32239C27.9902 7.84919 27.3278 8.61961 26.964 9.28187M28.7614 7.2065L24.5718 13.7358M26.964 9.28187C26.8427 9.49514 26.729 9.75041 26.65 9.9727C26.6104 10.084 26.5785 10.19 26.5589 10.2803C26.5491 10.3255 26.5418 10.3691 26.5386 10.409C26.5356 10.4461 26.5352 10.4899 26.5453 10.5315C26.5578 10.5849 26.5928 10.6277 26.6132 10.6509C26.6393 10.6805 26.6718 10.711 26.7069 10.7403C26.7773 10.7994 26.8683 10.8627 26.9637 10.9172L26.9639 10.9173C27.4307 11.1832 27.9794 11.801 28.2717 12.41L28.2721 12.4108C28.7376 13.366 28.8805 14.6445 28.698 16.1472C28.5209 17.6063 28.0381 19.2663 27.2594 21.0257L27.1864 20.554L27.1863 20.5536C27.0023 19.3861 26.5776 17.6603 26.2452 16.7715C25.8059 15.5812 25.18 14.441 24.5718 13.7358M26.964 9.28187C26.9642 9.28153 26.9644 9.28119 26.9646 9.28086L27.0949 9.35506L26.9634 9.28287C26.9636 9.28254 26.9638 9.2822 26.964 9.28187ZM24.5718 13.7358C24.5606 13.7227 24.5493 13.7094 24.538 13.6959C24.49 13.639 24.4409 13.5807 24.3891 13.5393C24.3107 13.4767 24.2243 13.4472 24.1115 13.4441C24.0086 13.4412 23.8783 13.4602 23.7055 13.493C23.574 13.5179 23.4096 13.5527 23.2033 13.5963C23.1346 13.6108 23.0612 13.6263 22.9828 13.6428L22.9823 13.6429C20.9262 14.0817 19.4548 14.2136 16.7372 14.2136C14.3397 14.2136 13.6547 14.1635 11.9055 13.8625L11.9054 13.8625C10.3691 13.5991 8.07944 12.9462 6.96402 12.454M24.5718 13.7358L6.96402 12.454M3.14639 20.7967L3.11275 20.7113L3.11257 20.7108C2.51647 19.2111 2.07823 17.6949 1.85952 16.3889L1.85952 16.3889C1.7696 15.8525 1.72439 15.2412 1.72517 14.6768C1.72595 14.1101 1.77313 13.6017 1.86278 13.267L1.86287 13.2666C2.06269 12.5135 2.37259 11.9533 2.81618 11.5447C3.25987 11.136 3.84943 10.8678 4.62813 10.72C4.62828 10.7199 4.62844 10.7199 4.6286 10.7199L4.60064 10.5725L3.14639 20.7967ZM3.14639 20.7967C3.17534 20.5876 3.21218 20.3054 3.24704 20.0343L3.24705 20.0342C3.50092 18.0667 4.0995 16.3861 4.90961 15.4453L4.90979 15.4451C5.53485 14.722 5.86917 13.9917 5.99752 13.075C6.02264 12.8945 6.0467 12.7457 6.07942 12.6321C6.11101 12.5223 6.15925 12.4125 6.25664 12.3473C6.35975 12.2783 6.47781 12.2849 6.58378 12.3103C6.68994 12.3357 6.81685 12.3883 6.96402 12.454M3.14639 20.7967L6.96402 12.454M14.468 2.3068C14.4681 2.30674 14.4683 2.30669 14.4685 2.30663L14.4222 2.16396M14.468 2.3068C14.4678 2.30686 14.4676 2.30692 14.4674 2.30698L14.4222 2.16396M14.4222 2.16396C13.7031 2.39735 13.5832 2.36581 13.5832 1.93687C13.5832 1.65932 13.5832 1.65301 13.3814 1.66563L14.4222 2.16396ZM6.96402 12.454C6.96389 12.4539 6.96375 12.4539 6.96362 12.4538L6.90305 12.5911L6.96424 12.4541C6.96417 12.4541 6.96409 12.454 6.96402 12.454ZM22.5796 2.42977C22.5538 2.44109 22.5305 2.45583 22.5101 2.47359L22.4734 2.3159C22.5235 2.32306 22.5649 2.33068 22.5965 2.33873C22.5883 2.36009 22.5858 2.38151 22.5872 2.40143C22.5874 2.40339 22.5875 2.40533 22.5877 2.40726C22.5884 2.41338 22.5895 2.41934 22.5909 2.42509C22.5881 2.42616 22.5854 2.42726 22.5827 2.42841C22.5817 2.42886 22.5806 2.42931 22.5796 2.42977Z" fill="white" stroke="white" stroke-width="0.3"/>
</svg>
