<svg width="28" height="26" viewBox="0 0 28 26" fill="none" xmlns="http://www.w3.org/2000/svg">
<mask id="path-1-outside-1_5_72" maskUnits="userSpaceOnUse" x="0" y="0.13662" width="28" height="26" fill="black">
<rect fill="white" y="0.13662" width="28" height="26"/>
<path d="M1.75766 1.06053C1.46457 1.37193 1.25086 2.25731 1.07989 3.8632C0.963878 4.99892 0.97609 8.41219 1.10432 9.20598C1.25086 10.0852 1.33024 10.299 1.52563 10.3234L1.67828 10.3417L1.65386 11.5263C1.61112 13.2848 1.78209 14.5915 2.2034 15.7516C2.47207 16.5027 2.69799 16.7164 2.94834 16.4722C3.02772 16.3867 3.03993 16.4111 3.07657 16.6676C3.34523 18.707 3.90699 20.1785 4.85342 21.302C5.18925 21.6928 5.36022 21.7905 5.54951 21.6928C5.68384 21.6195 5.68384 21.6012 5.64721 21.0273L5.60446 20.435L6.50816 21.3265C8.29112 23.0911 9.66498 24.0314 11.3808 24.6726C12.5043 25.0939 12.7668 25.1366 14.0064 25.1366C15.0017 25.1305 15.1604 25.1183 15.655 24.9779C17.7982 24.3612 19.3797 23.3659 21.413 21.3509L22.3411 20.4289L22.3045 21.0089C22.2678 21.528 22.2739 21.5951 22.3716 21.6684C22.5487 21.8027 22.622 21.7722 22.9456 21.4486C23.8737 20.5205 24.521 18.9939 24.814 17.0705C24.8629 16.7225 24.9056 16.4233 24.9056 16.3989C24.9056 16.3684 24.9362 16.3989 24.9728 16.4538C25.0522 16.5943 25.2842 16.5943 25.4124 16.4538C25.5651 16.2829 25.9192 15.3059 26.0536 14.6709C26.2551 13.7428 26.3283 12.8085 26.2978 11.5202C26.2734 10.5432 26.2856 10.3356 26.3528 10.36C26.7619 10.5188 27.0244 8.6259 26.9634 5.93925C26.884 2.59925 26.5054 0.871241 25.8582 0.871241C25.5529 0.871241 25.3025 1.19486 24.7469 2.29395C23.9958 3.77771 23.7455 4.11965 21.8404 6.20181L20.6742 7.47186L19.7949 6.55596C18.7935 5.51183 18.36 5.15768 17.67 4.83406C16.406 4.24177 15.1726 4.29062 14.275 4.9806L13.988 5.19431L13.7743 5.01724C12.9012 4.29673 11.5151 4.23567 10.2817 4.85238C9.64666 5.16989 9.21313 5.53014 8.24838 6.51322C7.73547 7.03834 7.30805 7.46576 7.29584 7.46576C7.24699 7.46576 4.9328 4.91343 4.5298 4.41274C3.92531 3.6678 3.79708 3.4663 3.20479 2.29395C2.49039 0.883453 2.17898 0.614788 1.75766 1.06053ZM2.74073 2.61757C3.02772 3.18543 3.37576 3.82046 3.5162 4.02806C3.85814 4.52265 4.59086 5.38971 5.5373 6.40941C5.96472 6.87347 6.50205 7.46576 6.73408 7.72832C7.00885 8.02751 7.20425 8.19848 7.28362 8.19848C7.36911 8.19848 7.77821 7.81991 8.49872 7.06886C9.72604 5.7927 10.2206 5.42024 11.0144 5.16989C11.6311 4.96839 12.3211 4.95007 12.8157 5.11493C13.0721 5.20042 13.2431 5.31643 13.5362 5.61563C13.9819 6.06748 14.1163 6.08579 14.3361 5.73164C14.7879 5.00503 16.0458 4.7791 17.1693 5.23705C17.9081 5.53014 18.1951 5.75607 19.4163 6.98949C20.0758 7.65504 20.6497 8.19848 20.7047 8.19848C20.7535 8.19848 20.9856 7.98477 21.2176 7.72832C21.4496 7.46576 21.987 6.87347 22.4144 6.40941C23.3608 5.38971 24.0935 4.52265 24.4355 4.02806C24.5759 3.82046 24.924 3.18543 25.2109 2.61757C25.4979 2.04971 25.7605 1.57343 25.8032 1.56122C25.9925 1.49406 26.2612 3.1549 26.3772 5.02334C26.4444 6.20791 26.426 8.03972 26.3345 8.70528L26.2917 8.99837L26.1024 8.70528C25.9681 8.49768 25.8643 8.40609 25.7544 8.39388C25.4674 8.35724 25.4308 8.48547 25.5407 9.21819C25.8521 11.3553 25.7971 13.6817 25.4063 14.964L25.2964 15.312L25.1255 14.7625C24.9301 14.1335 24.8812 14.0603 24.6919 14.0603C24.6187 14.0603 24.5271 14.0969 24.4965 14.1335C24.4599 14.1763 24.4172 14.6648 24.3927 15.2204C24.3195 17.1621 24.0142 18.5848 23.4097 19.8122C23.2814 20.0686 23.1105 20.3556 23.0311 20.4533L22.8845 20.6243L22.9212 20.0869C22.9578 19.6229 22.9456 19.5313 22.854 19.4275C22.7991 19.3664 22.7014 19.3115 22.6464 19.3115C22.5915 19.3115 22.2251 19.6656 21.8343 20.0991C19.8804 22.2668 18.0364 23.5857 15.9908 24.2818C15.02 24.6115 13.6705 24.697 12.6997 24.4955C12.2295 24.3978 11.0572 23.9643 10.4527 23.659C9.17649 23.0117 7.51565 21.6562 6.11737 20.0991C5.72659 19.6656 5.36022 19.3115 5.30527 19.3115C5.25031 19.3115 5.15262 19.3664 5.09766 19.4275C5.00607 19.5313 4.99386 19.6229 5.0305 20.0869L5.06713 20.6243L4.91448 20.4472C4.70688 20.2029 4.31609 19.3786 4.1207 18.7925C3.77876 17.73 3.6139 16.6859 3.55894 15.2204C3.53452 14.6648 3.49178 14.1763 3.45514 14.1335C3.38187 14.0358 3.13763 14.0358 3.05825 14.1335C3.02772 14.1763 2.92392 14.4572 2.82622 14.7564L2.66136 15.3059L2.57587 15.0617C2.42322 14.622 2.25836 13.468 2.21562 12.5521C2.17287 11.5995 2.24615 10.3539 2.41101 9.21819C2.52092 8.48547 2.48428 8.35724 2.1973 8.39388C2.08739 8.40609 1.98359 8.49768 1.84925 8.70528L1.65997 8.99837L1.61722 8.70528C1.43404 7.36196 1.57448 3.59453 1.86147 2.35501C1.97748 1.82989 2.08739 1.5368 2.14845 1.56122C2.19119 1.57343 2.45375 2.04971 2.74073 2.61757Z"/>
</mask>
<path d="M1.75766 1.06053C1.46457 1.37193 1.25086 2.25731 1.07989 3.8632C0.963878 4.99892 0.97609 8.41219 1.10432 9.20598C1.25086 10.0852 1.33024 10.299 1.52563 10.3234L1.67828 10.3417L1.65386 11.5263C1.61112 13.2848 1.78209 14.5915 2.2034 15.7516C2.47207 16.5027 2.69799 16.7164 2.94834 16.4722C3.02772 16.3867 3.03993 16.4111 3.07657 16.6676C3.34523 18.707 3.90699 20.1785 4.85342 21.302C5.18925 21.6928 5.36022 21.7905 5.54951 21.6928C5.68384 21.6195 5.68384 21.6012 5.64721 21.0273L5.60446 20.435L6.50816 21.3265C8.29112 23.0911 9.66498 24.0314 11.3808 24.6726C12.5043 25.0939 12.7668 25.1366 14.0064 25.1366C15.0017 25.1305 15.1604 25.1183 15.655 24.9779C17.7982 24.3612 19.3797 23.3659 21.413 21.3509L22.3411 20.4289L22.3045 21.0089C22.2678 21.528 22.2739 21.5951 22.3716 21.6684C22.5487 21.8027 22.622 21.7722 22.9456 21.4486C23.8737 20.5205 24.521 18.9939 24.814 17.0705C24.8629 16.7225 24.9056 16.4233 24.9056 16.3989C24.9056 16.3684 24.9362 16.3989 24.9728 16.4538C25.0522 16.5943 25.2842 16.5943 25.4124 16.4538C25.5651 16.2829 25.9192 15.3059 26.0536 14.6709C26.2551 13.7428 26.3283 12.8085 26.2978 11.5202C26.2734 10.5432 26.2856 10.3356 26.3528 10.36C26.7619 10.5188 27.0244 8.6259 26.9634 5.93925C26.884 2.59925 26.5054 0.871241 25.8582 0.871241C25.5529 0.871241 25.3025 1.19486 24.7469 2.29395C23.9958 3.77771 23.7455 4.11965 21.8404 6.20181L20.6742 7.47186L19.7949 6.55596C18.7935 5.51183 18.36 5.15768 17.67 4.83406C16.406 4.24177 15.1726 4.29062 14.275 4.9806L13.988 5.19431L13.7743 5.01724C12.9012 4.29673 11.5151 4.23567 10.2817 4.85238C9.64666 5.16989 9.21313 5.53014 8.24838 6.51322C7.73547 7.03834 7.30805 7.46576 7.29584 7.46576C7.24699 7.46576 4.9328 4.91343 4.5298 4.41274C3.92531 3.6678 3.79708 3.4663 3.20479 2.29395C2.49039 0.883453 2.17898 0.614788 1.75766 1.06053ZM2.74073 2.61757C3.02772 3.18543 3.37576 3.82046 3.5162 4.02806C3.85814 4.52265 4.59086 5.38971 5.5373 6.40941C5.96472 6.87347 6.50205 7.46576 6.73408 7.72832C7.00885 8.02751 7.20425 8.19848 7.28362 8.19848C7.36911 8.19848 7.77821 7.81991 8.49872 7.06886C9.72604 5.7927 10.2206 5.42024 11.0144 5.16989C11.6311 4.96839 12.3211 4.95007 12.8157 5.11493C13.0721 5.20042 13.2431 5.31643 13.5362 5.61563C13.9819 6.06748 14.1163 6.08579 14.3361 5.73164C14.7879 5.00503 16.0458 4.7791 17.1693 5.23705C17.9081 5.53014 18.1951 5.75607 19.4163 6.98949C20.0758 7.65504 20.6497 8.19848 20.7047 8.19848C20.7535 8.19848 20.9856 7.98477 21.2176 7.72832C21.4496 7.46576 21.987 6.87347 22.4144 6.40941C23.3608 5.38971 24.0935 4.52265 24.4355 4.02806C24.5759 3.82046 24.924 3.18543 25.2109 2.61757C25.4979 2.04971 25.7605 1.57343 25.8032 1.56122C25.9925 1.49406 26.2612 3.1549 26.3772 5.02334C26.4444 6.20791 26.426 8.03972 26.3345 8.70528L26.2917 8.99837L26.1024 8.70528C25.9681 8.49768 25.8643 8.40609 25.7544 8.39388C25.4674 8.35724 25.4308 8.48547 25.5407 9.21819C25.8521 11.3553 25.7971 13.6817 25.4063 14.964L25.2964 15.312L25.1255 14.7625C24.9301 14.1335 24.8812 14.0603 24.6919 14.0603C24.6187 14.0603 24.5271 14.0969 24.4965 14.1335C24.4599 14.1763 24.4172 14.6648 24.3927 15.2204C24.3195 17.1621 24.0142 18.5848 23.4097 19.8122C23.2814 20.0686 23.1105 20.3556 23.0311 20.4533L22.8845 20.6243L22.9212 20.0869C22.9578 19.6229 22.9456 19.5313 22.854 19.4275C22.7991 19.3664 22.7014 19.3115 22.6464 19.3115C22.5915 19.3115 22.2251 19.6656 21.8343 20.0991C19.8804 22.2668 18.0364 23.5857 15.9908 24.2818C15.02 24.6115 13.6705 24.697 12.6997 24.4955C12.2295 24.3978 11.0572 23.9643 10.4527 23.659C9.17649 23.0117 7.51565 21.6562 6.11737 20.0991C5.72659 19.6656 5.36022 19.3115 5.30527 19.3115C5.25031 19.3115 5.15262 19.3664 5.09766 19.4275C5.00607 19.5313 4.99386 19.6229 5.0305 20.0869L5.06713 20.6243L4.91448 20.4472C4.70688 20.2029 4.31609 19.3786 4.1207 18.7925C3.77876 17.73 3.6139 16.6859 3.55894 15.2204C3.53452 14.6648 3.49178 14.1763 3.45514 14.1335C3.38187 14.0358 3.13763 14.0358 3.05825 14.1335C3.02772 14.1763 2.92392 14.4572 2.82622 14.7564L2.66136 15.3059L2.57587 15.0617C2.42322 14.622 2.25836 13.468 2.21562 12.5521C2.17287 11.5995 2.24615 10.3539 2.41101 9.21819C2.52092 8.48547 2.48428 8.35724 2.1973 8.39388C2.08739 8.40609 1.98359 8.49768 1.84925 8.70528L1.65997 8.99837L1.61722 8.70528C1.43404 7.36196 1.57448 3.59453 1.86147 2.35501C1.97748 1.82989 2.08739 1.5368 2.14845 1.56122C2.19119 1.57343 2.45375 2.04971 2.74073 2.61757Z" fill="white"/>
<path d="M1.75766 1.06053C1.46457 1.37193 1.25086 2.25731 1.07989 3.8632C0.963878 4.99892 0.97609 8.41219 1.10432 9.20598C1.25086 10.0852 1.33024 10.299 1.52563 10.3234L1.67828 10.3417L1.65386 11.5263C1.61112 13.2848 1.78209 14.5915 2.2034 15.7516C2.47207 16.5027 2.69799 16.7164 2.94834 16.4722C3.02772 16.3867 3.03993 16.4111 3.07657 16.6676C3.34523 18.707 3.90699 20.1785 4.85342 21.302C5.18925 21.6928 5.36022 21.7905 5.54951 21.6928C5.68384 21.6195 5.68384 21.6012 5.64721 21.0273L5.60446 20.435L6.50816 21.3265C8.29112 23.0911 9.66498 24.0314 11.3808 24.6726C12.5043 25.0939 12.7668 25.1366 14.0064 25.1366C15.0017 25.1305 15.1604 25.1183 15.655 24.9779C17.7982 24.3612 19.3797 23.3659 21.413 21.3509L22.3411 20.4289L22.3045 21.0089C22.2678 21.528 22.2739 21.5951 22.3716 21.6684C22.5487 21.8027 22.622 21.7722 22.9456 21.4486C23.8737 20.5205 24.521 18.9939 24.814 17.0705C24.8629 16.7225 24.9056 16.4233 24.9056 16.3989C24.9056 16.3684 24.9362 16.3989 24.9728 16.4538C25.0522 16.5943 25.2842 16.5943 25.4124 16.4538C25.5651 16.2829 25.9192 15.3059 26.0536 14.6709C26.2551 13.7428 26.3283 12.8085 26.2978 11.5202C26.2734 10.5432 26.2856 10.3356 26.3528 10.36C26.7619 10.5188 27.0244 8.6259 26.9634 5.93925C26.884 2.59925 26.5054 0.871241 25.8582 0.871241C25.5529 0.871241 25.3025 1.19486 24.7469 2.29395C23.9958 3.77771 23.7455 4.11965 21.8404 6.20181L20.6742 7.47186L19.7949 6.55596C18.7935 5.51183 18.36 5.15768 17.67 4.83406C16.406 4.24177 15.1726 4.29062 14.275 4.9806L13.988 5.19431L13.7743 5.01724C12.9012 4.29673 11.5151 4.23567 10.2817 4.85238C9.64666 5.16989 9.21313 5.53014 8.24838 6.51322C7.73547 7.03834 7.30805 7.46576 7.29584 7.46576C7.24699 7.46576 4.9328 4.91343 4.5298 4.41274C3.92531 3.6678 3.79708 3.4663 3.20479 2.29395C2.49039 0.883453 2.17898 0.614788 1.75766 1.06053ZM2.74073 2.61757C3.02772 3.18543 3.37576 3.82046 3.5162 4.02806C3.85814 4.52265 4.59086 5.38971 5.5373 6.40941C5.96472 6.87347 6.50205 7.46576 6.73408 7.72832C7.00885 8.02751 7.20425 8.19848 7.28362 8.19848C7.36911 8.19848 7.77821 7.81991 8.49872 7.06886C9.72604 5.7927 10.2206 5.42024 11.0144 5.16989C11.6311 4.96839 12.3211 4.95007 12.8157 5.11493C13.0721 5.20042 13.2431 5.31643 13.5362 5.61563C13.9819 6.06748 14.1163 6.08579 14.3361 5.73164C14.7879 5.00503 16.0458 4.7791 17.1693 5.23705C17.9081 5.53014 18.1951 5.75607 19.4163 6.98949C20.0758 7.65504 20.6497 8.19848 20.7047 8.19848C20.7535 8.19848 20.9856 7.98477 21.2176 7.72832C21.4496 7.46576 21.987 6.87347 22.4144 6.40941C23.3608 5.38971 24.0935 4.52265 24.4355 4.02806C24.5759 3.82046 24.924 3.18543 25.2109 2.61757C25.4979 2.04971 25.7605 1.57343 25.8032 1.56122C25.9925 1.49406 26.2612 3.1549 26.3772 5.02334C26.4444 6.20791 26.426 8.03972 26.3345 8.70528L26.2917 8.99837L26.1024 8.70528C25.9681 8.49768 25.8643 8.40609 25.7544 8.39388C25.4674 8.35724 25.4308 8.48547 25.5407 9.21819C25.8521 11.3553 25.7971 13.6817 25.4063 14.964L25.2964 15.312L25.1255 14.7625C24.9301 14.1335 24.8812 14.0603 24.6919 14.0603C24.6187 14.0603 24.5271 14.0969 24.4965 14.1335C24.4599 14.1763 24.4172 14.6648 24.3927 15.2204C24.3195 17.1621 24.0142 18.5848 23.4097 19.8122C23.2814 20.0686 23.1105 20.3556 23.0311 20.4533L22.8845 20.6243L22.9212 20.0869C22.9578 19.6229 22.9456 19.5313 22.854 19.4275C22.7991 19.3664 22.7014 19.3115 22.6464 19.3115C22.5915 19.3115 22.2251 19.6656 21.8343 20.0991C19.8804 22.2668 18.0364 23.5857 15.9908 24.2818C15.02 24.6115 13.6705 24.697 12.6997 24.4955C12.2295 24.3978 11.0572 23.9643 10.4527 23.659C9.17649 23.0117 7.51565 21.6562 6.11737 20.0991C5.72659 19.6656 5.36022 19.3115 5.30527 19.3115C5.25031 19.3115 5.15262 19.3664 5.09766 19.4275C5.00607 19.5313 4.99386 19.6229 5.0305 20.0869L5.06713 20.6243L4.91448 20.4472C4.70688 20.2029 4.31609 19.3786 4.1207 18.7925C3.77876 17.73 3.6139 16.6859 3.55894 15.2204C3.53452 14.6648 3.49178 14.1763 3.45514 14.1335C3.38187 14.0358 3.13763 14.0358 3.05825 14.1335C3.02772 14.1763 2.92392 14.4572 2.82622 14.7564L2.66136 15.3059L2.57587 15.0617C2.42322 14.622 2.25836 13.468 2.21562 12.5521C2.17287 11.5995 2.24615 10.3539 2.41101 9.21819C2.52092 8.48547 2.48428 8.35724 2.1973 8.39388C2.08739 8.40609 1.98359 8.49768 1.84925 8.70528L1.65997 8.99837L1.61722 8.70528C1.43404 7.36196 1.57448 3.59453 1.86147 2.35501C1.97748 1.82989 2.08739 1.5368 2.14845 1.56122C2.19119 1.57343 2.45375 2.04971 2.74073 2.61757Z" stroke="white" stroke-width="0.6" mask="url(#path-1-outside-1_5_72)"/>
<path d="M13.8537 11.569C14.2079 11.5568 14.5559 11.569 14.6292 11.5873C14.7269 11.6117 14.8551 11.8132 15.1299 12.375C15.4535 13.0406 15.5268 13.1444 15.7222 13.236C16.0885 13.4069 16.5709 13.3336 17.2365 13.0039C18.2134 12.5154 18.7263 11.9354 19.6178 10.299C20.0269 9.55401 20.0819 9.36473 19.9475 9.24871C19.9048 9.21818 19.3858 9.17544 18.7996 9.15712C17.9814 9.1327 17.6211 9.09606 17.2731 9.00447M13.8537 11.569L11.9303 8.53431C12.6997 8.16184 13.2126 7.77105 13.5973 7.26425C13.9331 6.81851 14.0796 6.8063 14.3361 7.18487M13.8537 11.569L13.2126 11.5873M13.8537 11.569L13.2126 11.5873M17.2731 9.00447C15.9969 8.65032 14.8612 7.94813 14.3361 7.18487M17.2731 9.00447L17.3132 8.85993C17.3129 8.85984 17.3126 8.85975 17.3122 8.85966M17.2731 9.00447L17.3113 8.85941C17.3116 8.8595 17.3119 8.85958 17.3122 8.85966M14.3361 7.18487L14.4603 7.10075C14.4602 7.10058 14.4601 7.10042 14.4599 7.10025M14.3361 7.18487L14.4597 7.09985C14.4598 7.09999 14.4599 7.10012 14.4599 7.10025M13.4776 7.17381C13.1113 7.65633 12.6199 8.03381 11.865 8.3993L11.8646 8.39948C11.3737 8.63885 11.0286 8.77958 10.6468 8.86662C10.2634 8.95402 9.83597 8.98892 9.17843 9.00718L9.17806 9.00719C8.87389 9.01641 8.58749 9.03179 8.37168 9.0488C8.26405 9.05729 8.17229 9.06631 8.10404 9.07541C8.07024 9.07992 8.03967 9.08477 8.01484 9.09011C8.00261 9.09274 7.98899 9.09606 7.97584 9.10039L7.97545 9.10052C7.96725 9.10322 7.93995 9.11221 7.91471 9.13307C7.91454 9.1332 7.91438 9.13334 7.91421 9.13348L13.4776 7.17381ZM13.4776 7.17381C13.5633 7.06007 13.6424 6.96641 13.7185 6.89859C13.7935 6.83175 13.8802 6.77667 13.981 6.76624C14.0882 6.75515 14.1797 6.79732 14.2548 6.85888C14.3268 6.91792 14.3937 7.00248 14.4599 7.10025M13.4776 7.17381L12.2234 13.236M12.2234 13.236L12.2855 13.3725C12.2858 13.3723 12.2862 13.3722 12.2866 13.372C12.4113 13.3151 12.501 13.2471 12.6017 13.1014C12.6947 12.967 12.802 12.7591 12.9684 12.4233L12.9686 12.4229L13.3072 11.7347L13.858 11.7189L13.8589 11.7189C14.0328 11.7129 14.2053 11.7129 14.3427 11.7167C14.4115 11.7185 14.4705 11.7213 14.516 11.7246C14.5388 11.7263 14.5573 11.728 14.5715 11.7297C14.5784 11.7305 14.5834 11.7313 14.5868 11.7318C14.5897 11.7341 14.5948 11.7384 14.6021 11.7459C14.6221 11.7666 14.6496 11.8021 14.6865 11.8601C14.7602 11.976 14.8578 12.1601 14.9951 12.4408C15.1555 12.7707 15.2597 12.9741 15.3506 13.1059C15.4495 13.2493 15.5377 13.3152 15.6585 13.3718L15.6587 13.3719C16.0904 13.5733 16.6284 13.4725 17.303 13.1383L17.3035 13.1381C17.8063 12.8867 18.1952 12.6085 18.5717 12.1811C18.945 11.7575 19.3025 11.1913 19.7493 10.3711C19.9524 10.0013 20.0764 9.7544 20.1297 9.58245C20.1567 9.49557 20.171 9.41195 20.1583 9.33319C20.1445 9.24698 20.1012 9.18324 20.0456 9.13519L20.0351 9.12613L20.0347 9.12665C20.0118 9.11031 19.9883 9.10269 19.9794 9.09987C19.9667 9.09584 19.9534 9.09264 19.9411 9.09004C19.9164 9.08478 19.8861 9.07995 19.8526 9.07544C19.785 9.06634 19.6948 9.05731 19.5894 9.04882C19.3782 9.0318 19.0994 9.01642 18.8043 9.0072L18.8041 9.00719C17.9876 8.98282 17.6421 8.94637 17.3122 8.85966M12.2234 13.236C12.4249 13.1444 12.4982 13.0345 12.834 12.3567L13.2126 11.5873M12.2234 13.236C11.8631 13.4069 11.3808 13.3336 10.7152 13.0039L13.2126 11.5873M17.3122 8.85966C16.0561 8.51089 14.958 7.82377 14.4599 7.10025M18.6864 9.91134L18.6864 9.91133C18.807 9.91886 18.9176 9.92847 19.005 9.93789C19.0032 9.94118 19.0014 9.94451 18.9995 9.94789C18.9413 10.0543 18.8603 10.1957 18.7703 10.3488C18.5899 10.6556 18.3764 11.0037 18.2416 11.2045L18.2413 11.2049C17.7711 11.9102 17.1534 12.3622 16.423 12.5535C16.3229 12.5797 16.251 12.5983 16.1959 12.6102C16.1395 12.6225 16.1115 12.6253 16.0965 12.625C16.0933 12.6249 16.0914 12.6247 16.0904 12.6246C16.0903 12.6245 16.0903 12.6245 16.0902 12.6244C16.0839 12.6206 16.0739 12.6122 16.0451 12.5835C16.0271 12.5625 15.984 12.4965 15.928 12.3934C15.8729 12.2922 15.8127 12.1687 15.763 12.0489L15.7621 12.0465L15.762 12.0466C15.5418 11.5397 15.3689 11.2087 15.0995 11.0189C14.8261 10.8264 14.4786 10.7962 13.9758 10.7962C13.4762 10.7962 13.2082 10.818 13.0194 10.9087M18.6864 9.91134L12.3211 12.1185L12.1826 12.0609C12.1827 12.0608 12.1827 12.0607 12.1828 12.0606C12.3076 11.7611 12.4392 11.5122 12.5759 11.3202C12.7113 11.13 12.8589 10.9852 13.0194 10.9087M18.6864 9.91134L18.6849 9.91123C17.1515 9.79993 15.9579 9.43392 14.9294 8.73153M18.6864 9.91134L8.95182 9.93775M13.0194 10.9087L13.0844 11.0439L13.0199 10.9085C13.0197 10.9085 13.0196 10.9086 13.0194 10.9087ZM8.95182 9.93775C8.96885 9.93598 8.98689 9.93414 9.00587 9.93225C9.15799 9.91712 9.3661 9.89888 9.59161 9.8806C10.0451 9.84383 10.6418 9.76372 10.9117 9.69309C11.9526 9.42501 12.9769 8.88283 13.681 8.22902L14.0052 7.92799L14.2694 8.179L14.27 8.17958C14.4731 8.37035 14.7668 8.62096 14.9294 8.73153M8.95182 9.93775C8.95683 9.94737 8.96208 9.95737 8.96755 9.96773C9.03416 10.0938 9.12961 10.2638 9.23444 10.4442C9.44556 10.8075 9.6874 11.2004 9.80383 11.3576L9.80383 11.3576L9.80471 11.3588C10.0177 11.6524 10.339 11.9428 10.6855 12.1711C11.0336 12.4004 11.3925 12.5575 11.6769 12.599L8.95182 9.93775ZM14.9294 8.73153C14.9294 8.73156 14.9295 8.73159 14.9295 8.73162L15.0139 8.60758L14.9293 8.73145C14.9293 8.73148 14.9293 8.73151 14.9294 8.73153Z" fill="white" stroke="white" stroke-width="0.3"/>
</svg>
