<svg width="32" height="32" viewBox="0 0 32 32" fill="none" xmlns="http://www.w3.org/2000/svg">
<path d="M15.1993 2.80067L2.94266 15.0573C2.6927 15.3074 2.55228 15.6465 2.55228 16C2.55228 16.3536 2.6927 16.6926 2.94266 16.9427L15.2 29.2C15.45 29.45 15.7891 29.5904 16.1427 29.5904C16.4962 29.5904 16.8353 29.45 17.0853 29.2L29.342 16.9433C29.592 16.6933 29.7324 16.3542 29.7324 16.0007C29.7324 15.6471 29.592 15.308 29.342 15.058L17.0847 2.8C16.8346 2.55004 16.4955 2.40962 16.142 2.40962C15.7884 2.40962 15.4494 2.55004 15.1993 2.8V2.80067Z" stroke="white" stroke-width="2" stroke-linejoin="round"/>
<path d="M12 16H20M16 12V20" stroke="white" stroke-width="2" stroke-linecap="round"/>
</svg>
